<svg width="886" height="164" viewBox="0 0 886 164" fill="none" xmlns="http://www.w3.org/2000/svg">
<path d="M0 155.74V9.22H64.158C81.918 9.22 95.016 12.698 103.452 19.654C111.888 26.61 116.106 36.452 116.106 49.18C116.106 57.024 113.738 63.98 109.002 70.048C104.266 76.116 97.31 79.964 88.134 81.592V81.814C98.346 83.294 106.19 87.142 111.666 93.358C117.142 99.574 119.88 106.974 119.88 115.558C119.88 128.138 115.292 137.98 106.116 145.084C97.088 152.188 83.842 155.74 66.378 155.74H0ZM29.748 70.714H60.162C76.294 70.714 84.36 64.424 84.36 51.844C84.36 39.264 76.294 32.974 60.162 32.974H29.748V70.714ZM29.748 132.652H63.714C71.854 132.652 77.922 131.024 81.918 127.768C86.062 124.364 88.134 119.554 88.134 113.338C88.134 107.27 86.062 102.608 81.918 99.352C77.922 95.948 71.854 94.246 63.714 94.246H29.748V132.652Z" fill="black"/>
<path d="M201.326 7C215.83 7 228.336 10.034 238.844 16.102C249.352 22.17 257.418 30.828 263.042 42.076C268.814 53.324 271.7 66.792 271.7 82.48C271.7 98.168 268.814 111.636 263.042 122.884C257.418 134.132 249.352 142.79 238.844 148.858C228.336 154.926 215.83 157.96 201.326 157.96C186.822 157.96 174.242 154.926 163.586 148.858C153.078 142.79 144.938 134.132 139.166 122.884C133.542 111.636 130.73 98.168 130.73 82.48C130.73 66.792 133.542 53.324 139.166 42.076C144.938 30.828 153.078 22.17 163.586 16.102C174.242 10.034 186.822 7 201.326 7ZM201.326 32.086C188.894 32.086 179.274 36.452 172.466 45.184C165.806 53.768 162.476 66.2 162.476 82.48C162.476 98.76 165.806 111.266 172.466 119.998C179.274 128.582 188.894 132.874 201.326 132.874C213.61 132.874 223.082 128.582 229.742 119.998C236.55 111.266 239.954 98.76 239.954 82.48C239.954 66.2 236.55 53.768 229.742 45.184C223.082 36.452 213.61 32.086 201.326 32.086Z" fill="black"/>
<path d="M322.141 131.098H399.397V155.74H291.505V9.22H322.141V131.098Z" fill="black"/>
<path d="M397.307 155.74L450.809 9.22H487.439L540.941 155.74H509.195L496.985 119.998H440.597L428.609 155.74H397.307ZM462.353 55.618L448.145 97.354H489.437L475.673 56.062L469.013 33.862H468.569L462.353 55.618Z" fill="black"/>
<path d="M677.449 9.22V155.74H642.373L591.091 69.604L578.437 45.628H578.215L579.103 70.936V155.74H551.575V9.22H586.429L637.711 95.134L650.365 119.332H650.809L649.921 94.024V9.22H677.449Z" fill="black"/>
<path d="M761.2 9.22C784.14 9.22 801.9 15.584 814.48 28.312C827.06 41.04 833.35 59.096 833.35 82.48C833.35 105.864 827.06 123.92 814.48 136.648C801.9 149.376 784.14 155.74 761.2 155.74H704.59V9.22H761.2ZM759.646 131.32C773.558 131.32 783.992 127.176 790.948 118.888C798.052 110.452 801.604 98.316 801.604 82.48C801.604 66.644 798.052 54.582 790.948 46.294C783.992 37.858 773.558 33.64 759.646 33.64H735.226V131.32H759.646Z" fill="black"/>
<path d="M858.542 121.774C864.462 121.774 869.124 123.402 872.528 126.658C876.08 129.914 877.856 134.28 877.856 139.756C877.856 145.38 876.08 149.82 872.528 153.076C869.124 156.184 864.462 157.738 858.542 157.738C852.474 157.738 847.738 156.184 844.334 153.076C840.93 149.82 839.228 145.38 839.228 139.756C839.228 134.28 840.93 129.914 844.334 126.658C847.738 123.402 852.474 121.774 858.542 121.774Z" fill="black"/>
</svg>
